<svg width="24" height="24" viewBox="0 0 24 24" fill="none" xmlns="http://www.w3.org/2000/svg">
<path d="M23.8882 18.9718L19.8797 12.0286C19.7718 11.8417 19.5019 11.8483 19.4002 12.0386C18.2379 14.2143 16.2043 15.7309 13.8643 16.2599C13.685 16.3005 13.5971 16.504 13.689 16.6632L17.2386 22.8114C17.5891 23.4184 18.4874 23.334 18.7228 22.6782L19.8238 19.6107L23.0308 20.1905C23.7175 20.3146 24.2373 19.5764 23.8882 18.9718Z" fill="#F3B700"/>
<path d="M10.1356 16.2599C7.79482 15.7307 5.76143 14.2133 4.59964 12.0386C4.49797 11.8483 4.22806 11.8418 4.12016 12.0286L0.111647 18.9718C-0.237149 19.5759 0.281897 20.3146 0.968943 20.1905L4.17598 19.6107L5.27698 22.6782C5.51234 23.3338 6.4106 23.4185 6.76109 22.8114L10.3108 16.6632C10.4028 16.5039 10.3149 16.3004 10.1356 16.2599Z" fill="#F3B700"/>
<path d="M18.7886 10.7607V10.7606C19.6781 8.51394 19.3963 5.97678 18.0349 3.97363C15.1391 -0.287625 8.86063 -0.286453 5.96573 3.97321C4.60411 5.97679 4.32216 8.51408 5.21161 10.7607C7.6476 16.9121 16.3641 16.8833 18.7886 10.7607ZM16.0122 7.89064L14.6019 9.26525L14.9348 11.2063C15.0506 11.8814 14.3394 12.3856 13.7432 12.072L12.0001 11.1556L10.2569 12.0721C9.65573 12.3881 8.95045 11.8763 9.06534 11.2063L9.39824 9.2653L7.98796 7.89069C7.50159 7.4165 7.77051 6.58766 8.44307 6.48997L10.392 6.20675L11.2635 4.44074C11.5641 3.83155 12.4356 3.83123 12.7364 4.44074L13.6079 6.20675L15.5569 6.48997C16.2292 6.58756 16.4988 7.41622 16.0122 7.89064Z" fill="#F3B700"/>
</svg>
