<svg width="18" height="17" viewBox="0 0 18 17" fill="none" xmlns="http://www.w3.org/2000/svg">
<path d="M17.0916 15.5342L14 12.4676C15.2001 10.9712 15.7812 9.07198 15.624 7.16031C15.4667 5.24865 14.583 3.46988 13.1546 2.18977C11.7261 0.909652 9.86149 0.225489 7.94408 0.277956C6.02668 0.330423 4.20225 1.11553 2.84593 2.47185C1.48962 3.82817 0.704507 5.6526 0.65204 7.57C0.599573 9.4874 1.28374 11.352 2.56385 12.7805C3.84397 14.209 5.62273 15.0927 7.5344 15.2499C9.44606 15.4072 11.3453 14.826 12.8416 13.6259L15.9083 16.6926C15.9858 16.7707 16.078 16.8327 16.1795 16.875C16.281 16.9173 16.39 16.9391 16.5 16.9391C16.61 16.9391 16.7189 16.9173 16.8205 16.875C16.922 16.8327 17.0142 16.7707 17.0916 16.6926C17.2418 16.5372 17.3258 16.3295 17.3258 16.1134C17.3258 15.8973 17.2418 15.6896 17.0916 15.5342V15.5342ZM8.16665 13.6259C7.01292 13.6259 5.88511 13.2838 4.92582 12.6428C3.96653 12.0018 3.21886 11.0908 2.77735 10.0249C2.33584 8.95898 2.22032 7.78609 2.4454 6.65454C2.67048 5.52298 3.22605 4.48358 4.04186 3.66777C4.85766 2.85197 5.89707 2.2964 7.02862 2.07132C8.16018 1.84624 9.33307 1.96176 10.399 2.40327C11.4649 2.84478 12.3759 3.59245 13.0169 4.55174C13.6579 5.51102 14 6.63884 14 7.79256C14 9.33966 13.3854 10.8234 12.2914 11.9174C11.1975 13.0113 9.71374 13.6259 8.16665 13.6259V13.6259Z" fill="#F3B700"/>
</svg>
