<svg width="24" height="24" viewBox="0 0 24 24" fill="none" xmlns="http://www.w3.org/2000/svg">
<path d="M24 5.25C24 4.04808 23.532 2.91797 22.682 2.06836C21.4175 0.803484 19.5841 0.464719 18 1.02394V0.75C18 0.335812 17.6642 0 17.25 0H6.75C6.33577 0 6 0.335812 6 0.75V1.02394C4.41572 0.464719 2.58262 0.803109 1.31798 2.06836C0.468 2.91797 0 4.04808 0 5.25C0 6.45192 0.468 7.58203 1.31798 8.43164C1.32736 8.44116 1.33852 8.44702 1.34812 8.45616C1.35717 8.46497 1.36359 8.47519 1.37292 8.48362L6.49439 13.1125C6.72975 13.326 9.22045 15.2234 10.5 15.5533V18L9.75 21H9C8.17158 21 7.5 21.6716 7.5 22.5V24H16.5V22.5C16.5 21.6716 15.8284 21 15 21H14.25L13.5 18V15.5534C14.7795 15.2234 17.2703 13.3253 17.5056 13.1126L22.6271 8.48367C22.6364 8.47523 22.6428 8.46502 22.6519 8.4562C22.6615 8.44706 22.6726 8.4412 22.682 8.43169C23.532 7.58203 24 6.45192 24 5.25ZM18.4391 4.18945C19.0243 3.60497 19.9757 3.60497 20.5609 4.18945C20.844 4.47291 21 4.84936 21 5.25C21 5.64661 20.8462 6.01903 20.5684 6.30141L18 8.6228V4.48903C18.1585 4.41689 18.3088 4.31981 18.4391 4.18945ZM3.43908 4.18945C4.02427 3.60497 4.97569 3.60497 5.56092 4.18945C5.69123 4.31981 5.84147 4.41652 6 4.48903V8.6228L3.43158 6.30141C3.1538 6.01903 3 5.64661 3 5.25C3 4.84936 3.156 4.47291 3.43908 4.18945Z" fill="#F3B700"/>
</svg>
