<svg width="30" height="30" viewBox="0 0 30 30" fill="none" xmlns="http://www.w3.org/2000/svg">
<path d="M26.2207 13.5703L13.585 26.2207C13.2422 26.5635 12.8203 26.7363 12.3252 26.7363C11.8271 26.7363 11.4082 26.5635 11.0654 26.2207L9.31055 24.4658C9.8291 23.9443 10.0898 23.3144 10.0898 22.5703C10.0898 21.8262 9.8291 21.1963 9.31055 20.6748C8.78906 20.1562 8.15918 19.8955 7.41504 19.8955C6.6709 19.8955 6.04101 20.1562 5.51953 20.6748L3.7793 18.9199C3.43652 18.5771 3.26367 18.1553 3.26367 17.6602C3.26367 17.1621 3.43652 16.7432 3.7793 16.4004L16.415 3.7793C16.7578 3.43652 17.1797 3.26367 17.6748 3.26367C18.1728 3.26367 18.5918 3.43652 18.9346 3.7793L20.6748 5.51953C20.1533 6.04101 19.8955 6.6709 19.8955 7.41504C19.8955 8.15918 20.1562 8.78906 20.6748 9.31055C21.1934 9.83203 21.8262 10.0898 22.5703 10.0898C23.3144 10.0898 23.9443 9.8291 24.4658 9.31055L26.2207 11.0508C26.5635 11.3936 26.7363 11.8154 26.7363 12.3105C26.7363 12.8086 26.5635 13.2275 26.2207 13.5703ZM13.8369 22.4443L22.4443 13.8369C22.6201 13.6611 22.708 13.4531 22.708 13.21C22.708 12.9697 22.6201 12.7588 22.4443 12.583L17.4023 7.54101C17.2353 7.37402 17.0273 7.28906 16.7754 7.28906C16.5234 7.28906 16.3154 7.37402 16.1484 7.54101L7.54101 16.1484C7.36523 16.3242 7.27734 16.5352 7.27734 16.7754C7.27734 17.0156 7.36523 17.2266 7.54101 17.4023L12.583 22.4443C12.75 22.6113 12.958 22.6963 13.21 22.6963C13.4619 22.6963 13.6699 22.6113 13.8369 22.4443ZM16.7754 8.80664L21.1758 13.207L13.207 21.1758L8.80957 16.7754L16.7754 8.80664Z" fill="#242424"/>
</svg>
